<svg aria-hidden="true" style="position: absolute; width: 0; height: 0; overflow: hidden;" version="1.1" xmlns="http://www.w3.org/2000/svg" xmlns:xlink="http://www.w3.org/1999/xlink">
<defs>
<symbol id="icon-downarrow" viewBox="0 0 32 32">
<path fill="none" stroke="#fff" style="stroke: var(--color1, #fff)" stroke-linejoin="round" stroke-linecap="round" stroke-miterlimit="4" stroke-width="3.2" d="M8 12l8 8 8-8"></path>
</symbol>
<symbol id="icon-heart" viewBox="0 0 32 32">
<path fill="none" stroke="#000" style="stroke: var(--color1, #fff)" stroke-linejoin="round" stroke-linecap="round" stroke-miterlimit="4" stroke-width="2.6667" d="M27.787 6.147c-0.681-0.681-1.49-1.222-2.38-1.591s-1.844-0.559-2.807-0.559c-0.963 0-1.917 0.19-2.807 0.559s-1.698 0.909-2.38 1.591l-1.413 1.413-1.413-1.413c-1.376-1.376-3.241-2.148-5.187-2.148s-3.811 0.773-5.187 2.148c-1.376 1.376-2.148 3.241-2.148 5.187s0.773 3.811 2.148 5.187l11.787 11.787 11.787-11.787c0.681-0.681 1.222-1.49 1.591-2.38s0.559-1.844 0.559-2.807c0-0.963-0.19-1.917-0.559-2.807s-0.909-1.699-1.591-2.38z"></path>
</symbol>
<symbol id="icon-logo" fill="#000" stroke="#000" viewBox="0 0 32 32">
<path d="M1.45 6.95c-1.4 1.45-1.45 1.6-1.45 6.8 0 2.9 0.25 5.75 0.5 6.3 0.35 0.65 0.35 0.95 0 0.95-0.3 0-0.5 1.2-0.5 2.75v2.75h4.4c3.15 0 4.7-0.2 5.5-0.8 1-0.7 1.2-0.7 2.2 0 1.5 1.050 6.3 1.050 7.8 0 1-0.7 1.2-0.7 2.2 0 0.8 0.6 2.35 0.8 5.5 0.8h4.4v-18.1l-1.45-1.45c-1.3-1.3-1.8-1.45-4.45-1.45-2.5 0-3.3 0.2-4.5 1.25-0.9 0.75-2.1 1.25-3.050 1.25-1.3 0-1.55-0.2-1.55-1.25v-1.25h-14.1l-1.45 1.45zM10 15.15c0 5.5-0.2 7.9-0.65 8.55-0.5 0.65-1.6 0.95-4 1.15-3.15 0.25-3.35 0.25-3.35-0.8 0-0.95 0.25-1.050 3-1.050 2.65 0 3-0.1 3-1 0-0.85-0.35-1-2.1-1-3.45 0-3.9-0.8-3.9-7 0-3.45 0.2-5.5 0.6-5.9 0.35-0.35 2-0.6 4-0.6h3.4v7.65zM15 8.75c0 1.15 0.15 1.25 2.5 1.25 2.15 0 2.5 0.15 2.5 1s-0.35 1-2.5 1h-2.5v5.5c0 5.15 0.050 5.5 1 5.5s1-0.35 1-4.5v-4.5h3v4.4c0 5.6-0.45 6.35-4 6.35-3.85 0-4-0.4-4-9.6v-7.65h1.5c1.25 0 1.5 0.2 1.5 1.25zM29.4 8.1c0.4 0.4 0.6 3.1 0.6 8.8v8.25l-3.35-0.3c-4.2-0.3-4.65-0.85-4.65-5.65 0-4.2 0.65-5.2 3.3-5.2h1.7v-2.5c0-2.15-0.15-2.5-1-2.5-0.8 0-1 0.35-1 1.5 0 1.35-0.15 1.5-1.5 1.5-1.3 0-1.5-0.2-1.5-1.3 0-2.55 0.8-3.2 3.9-3.2 1.6 0 3.15 0.25 3.5 0.6z"></path>
<path d="M5 14c0 4.65 0.050 5 1 5s1-0.35 1-5c0-4.65-0.050-5-1-5s-1 0.35-1 5z"></path>
<path d="M25.35 15.85c-0.2 0.15-0.35 1.85-0.35 3.75 0 3.050 0.1 3.4 1 3.4s1-0.35 1-3.75c0-2.8-0.15-3.75-0.65-3.75-0.4 0-0.85 0.15-1 0.35z"></path>
</symbol>
</defs>
</svg>
