<?xml version="1.0" standalone="no"?>
<!DOCTYPE svg PUBLIC "-//W3C//DTD SVG 20010904//EN"
 "http://www.w3.org/TR/2001/REC-SVG-20010904/DTD/svg10.dtd">
<svg version="1.0" xmlns="http://www.w3.org/2000/svg"
 width="64.000000pt" height="64.000000pt" viewBox="0 0 64.000000 64.000000"
 preserveAspectRatio="xMidYMid meet">

<g transform="translate(0.000000,64.000000) scale(0.100000,-0.100000)"
fill="#000000" stroke="none">
<path d="M29 501 c-28 -29 -29 -32 -29 -136 0 -58 5 -115 10 -126 7 -13 7 -19
0 -19 -6 0 -10 -24 -10 -55 l0 -55 88 0 c63 0 94 4 110 16 20 14 24 14 44 0
30 -21 126 -21 156 0 20 14 24 14 44 0 16 -12 47 -16 110 -16 l88 0 0 181 0
181 -29 29 c-26 26 -36 29 -89 29 -50 0 -66 -4 -90 -25 -18 -15 -42 -25 -61
-25 -26 0 -31 4 -31 25 l0 25 -141 0 -141 0 -29 -29z m171 -164 c0 -110 -4
-158 -13 -171 -10 -13 -32 -19 -80 -23 -63 -5 -67 -5 -67 16 0 19 5 21 60 21
53 0 60 2 60 20 0 17 -7 20 -42 20 -69 0 -78 16 -78 140 0 69 4 110 12 118 7
7 40 12 80 12 l68 0 0 -153z m100 128 c0 -23 3 -25 50 -25 43 0 50 -3 50 -20
0 -17 -7 -20 -50 -20 l-50 0 0 -110 c0 -103 1 -110 20 -110 19 0 20 7 20 90
l0 90 30 0 30 0 0 -88 c0 -112 -9 -127 -80 -127 -77 0 -80 8 -80 192 l0 153
30 0 c25 0 30 -4 30 -25z m288 13 c8 -8 12 -62 12 -176 l0 -165 -67 6 c-84 6
-93 17 -93 113 0 84 13 104 66 104 l34 0 0 50 c0 43 -3 50 -20 50 -16 0 -20
-7 -20 -30 0 -27 -3 -30 -30 -30 -26 0 -30 4 -30 26 0 51 16 64 78 64 32 0 63
-5 70 -12z"/>
<path d="M100 360 c0 -93 1 -100 20 -100 19 0 20 7 20 100 0 93 -1 100 -20
100 -19 0 -20 -7 -20 -100z"/>
<path d="M507 323 c-4 -3 -7 -37 -7 -75 0 -61 2 -68 20 -68 18 0 20 7 20 75 0
56 -3 75 -13 75 -8 0 -17 -3 -20 -7z"/>
</g>
</svg>
